<svg xmlns="http://www.w3.org/2000/svg" viewBox="0 0 48 48" xmlns:xlink="http://www.w3.org/1999/xlink" xml:space="preserve" width="100%" height="100%"><path fill="#47495F" fill-rule="evenodd" d="M23.586 10.09a1 1 0 0 1 .83 0l12 5.474a1 1 0 0 1 .584.91v13.684a1 1 0 0 1-.504.868l-12 6.842a1 1 0 0 1-.992 0l-12-6.84a1 1 0 0 1-.504-.87V16.474a1 1 0 0 1 .586-.91zM13 18.084l10 4.94v12.254l-10-5.7zm12 17.194 10-5.7V18.084l-10 4.94zm-1-13.99 9.67-4.78L24 12.1l-9.67 4.41z" clip-rule="evenodd" style="fill: rgb(255, 255, 255);"></path></svg>