<svg xmlns="http://www.w3.org/2000/svg" viewBox="0 0 48 48" xmlns:xlink="http://www.w3.org/1999/xlink" xml:space="preserve" width="100%" height="100%"><path fill="#47495F" fill-rule="evenodd" d="M23.58 7.092a1 1 0 0 1 .84 0l10 4.632a1 1 0 0 1 .58.908v11.58a1 1 0 0 1-.5.864l-10 5.79a1 1 0 0 1-1 0l-10-5.79a1 1 0 0 1-.5-.866V12.63a1 1 0 0 1 .58-.906zM15 14.252l8 4.014v10l-8-4.632zm10 14.014 8-4.632v-9.38l-8 4.012zM24 16.53l7.7-3.862L24 9.1l-7.7 3.568zM24 34a1 1 0 0 1 1 1v6a1 1 0 0 1-2 0v-6a1 1 0 0 1 1-1m-9-5a1 1 0 0 1 1 1v6a1 1 0 0 1-2 0v-6a1 1 0 0 1 1-1m18 0a1 1 0 0 1 1 1v8a1 1 0 0 1-2 0v-8a1 1 0 0 1 1-1" clip-rule="evenodd" style="fill: rgb(255, 255, 255);"></path></svg>