<svg xmlns="http://www.w3.org/2000/svg" viewBox="0 0 48 48" xmlns:xlink="http://www.w3.org/1999/xlink" xml:space="preserve" width="100%" height="100%"><path fill="#47495F" fill-rule="evenodd" d="M9 12a3 3 0 0 1 3-3h6a3 3 0 0 1 3 3v2h6v-2a3 3 0 0 1 3-3h6a3 3 0 0 1 3 3v6a3 3 0 0 1-3 3h-2v6h2a3 3 0 0 1 3 3v6a3 3 0 0 1-3 3h-6a3 3 0 0 1-3-3v-2h-6v2a3 3 0 0 1-3 3h-6a3 3 0 0 1-3-3v-6a3 3 0 0 1 3-3h2v-6h-2a3 3 0 0 1-3-3zm23 9h-2a3 3 0 0 1-3-3v-2h-6v2a3 3 0 0 1-3 3h-2v6h2a3 3 0 0 1 3 3v2h6v-2a3 3 0 0 1 3-3h2zM12 11a1 1 0 0 0-1 1v6a1 1 0 0 0 1 1h6a1 1 0 0 0 1-1v-6a1 1 0 0 0-1-1zm-1 19a1 1 0 0 1 1-1h6a1 1 0 0 1 1 1v6a1 1 0 0 1-1 1h-6a1 1 0 0 1-1-1zm18 0a1 1 0 0 1 1-1h6a1 1 0 0 1 1 1v6a1 1 0 0 1-1 1h-6a1 1 0 0 1-1-1zm0-18a1 1 0 0 1 1-1h6a1 1 0 0 1 1 1v6a1 1 0 0 1-1 1h-6a1 1 0 0 1-1-1z" clip-rule="evenodd" style="fill: rgb(255, 255, 255);"></path></svg>